<?xml version="1.0" standalone="no"?><!DOCTYPE svg PUBLIC "-//W3C//DTD SVG 1.1//EN"
        "http://www.w3.org/Graphics/SVG/1.1/DTD/svg11.dtd">
<svg t="1654135118132" class="icon" viewBox="0 0 1024 1024" version="1.1" xmlns="http://www.w3.org/2000/svg" p-id="5852"
     width="40" height="40" xmlns:xlink="http://www.w3.org/1999/xlink">
    <defs>
        <style type="text/css"></style>
    </defs>
    <path d="M921.6 51.2a51.2 51.2 0 0 1 51.2 51.2v614.4a51.2 51.2 0 0 1-51.2 51.2H102.4a51.2 51.2 0 0 1-51.2-51.2V102.4a51.2 51.2 0 0 1 51.2-51.2h819.2zM339.1488 314.9312a26.7776 26.7776 0 0 0-37.888 0.2048l-88.576 89.5488-2.56 3.072a27.392 27.392 0 0 0 2.56 35.3792l88.576 89.5488c10.752 10.5984 27.6992 10.496 38.0928 0a27.3408 27.3408 0 0 0 0-38.4512L269.824 423.936l69.632-70.3488a27.3408 27.3408 0 0 0 0-38.4z m345.7024 0l-0.2048 0.2048a27.3408 27.3408 0 0 0 0 38.4512L754.176 423.936l-69.632 70.2976a27.3408 27.3408 0 0 0 0 38.4512 26.7776 26.7776 0 0 0 37.888 0.2048l0.2048-0.2048 88.6272-89.5488a27.392 27.392 0 0 0 2.56-35.3792l-2.56-3.072-88.576-89.5488a26.7776 26.7776 0 0 0-37.888-0.2048z m-146.7392-7.0656a13.2096 13.2096 0 0 0-16.64 8.4992L462.2848 499.456a30.72 30.72 0 0 0 6.4 29.952l3.5328 3.9424a13.2096 13.2096 0 0 0 22.4256-4.7616l59.1872-183.04a30.72 30.72 0 0 0-6.4-30.0032l-3.584-3.9424a13.2096 13.2096 0 0 0-5.7344-3.7376z"
          p-id="5853" fill="#2aca63"></path>
    <path d="M256 870.4m30.72 0l450.56 0q30.72 0 30.72 30.72l0 40.96q0 30.72-30.72 30.72l-450.56 0q-30.72 0-30.72-30.72l0-40.96q0-30.72 30.72-30.72Z"
          p-id="5854" fill="#2aca63"></path>
</svg>